<svg viewBox="0 0 1000 1000" xmlns="http://www.w3.org/2000/svg"><defs><linearGradient id="c" gradientTransform="rotate(-90 .5 .5)"><stop offset="0%" stop-color="#7fc1ff"/><stop offset="100%" stop-color="#0affb3"/></linearGradient><clipPath id="b"><path fill="currentColor" d="M941.5 660.5Q883 821 735 906.5t-316.5 56Q250 933 140 802T30 500q0-171 110-302T418.5 37.5Q587 8 735 93.5t206.5 246q58.5 160.5 0 321Z"/></clipPath><filter id="a" x="-50vw" y="-50vh" width="100vw" height="100vh"><feFlood flood-color="#fff" result="neutral-gray"/><feTurbulence type="fractalNoise" baseFrequency="2.5" numOctaves="100" stitchTiles="stitch" result="noise"/><feColorMatrix in="noise" type="saturate" values="0" result="destaturatedNoise"/><feComponentTransfer in="desaturatedNoise" result="theNoise"><feFuncA type="table" tableValues="0 0 0.5 0"/></feComponentTransfer><feBlend in="SourceGraphic" in2="theNoise" mode="soft-light" result="noisy-image"/></filter></defs><g filter="url(#a)" clip-path="url(#b)"><path fill="url(#c)" d="M941.5 660.5Q883 821 735 906.5t-316.5 56Q250 933 140 802T30 500q0-171 110-302T418.5 37.5Q587 8 735 93.5t206.5 246q58.5 160.5 0 321Z"/></g></svg>